# xmcd CD database file
#
# Track frame offsets:
#	150
#	18612
#	34532
#	44812
#	57022
#	70565
#	83130
#	93935
#	106987
#	119542
#	129600
#	139482
#
# Disc length: 2021 seconds
#
# Revision: 0
# Processed by: cddbd v1.4PL0 Copyright (c) Steve Scherf et al.
# Submitted via: CDex 1.50beta10
#
DISCID=a507e30c
DTITLE=Buster Benton - That's The Reason
DYEAR=1997
DGENRE=Blues
TTITLE0=Going Fishin'
TTITLE1=Spider In My Stew
TTITLE2=Hole In My Head
TTITLE3=Erase My Name
TTITLE4=Looking For My Baby
TTITLE5=That's The Reason
TTITLE6=It's Your Thing
TTITLE7=Loving You Baby
TTITLE8=Catherine
TTITLE9=You Ain't Ready
TTITLE10=The Football
TTITLE11=Get Yourself Together
EXTD=YEAR: 1997
EXTT0=
EXTT1=
EXTT2=
EXTT3=
EXTT4=
EXTT5=
EXTT6=
EXTT7=
EXTT8=
EXTT9=
EXTT10=
EXTT11=
PLAYORDER=
